<svg width="59" height="60" viewBox="0 0 59 60" fill="none" xmlns="http://www.w3.org/2000/svg">
<rect width="59" height="60" rx="10" fill="white"/>
<path d="M19.2283 37H15.9329L20.9542 22.4545H24.9173L29.9315 37H26.636L22.9925 25.7784H22.8789L19.2283 37ZM19.0224 31.2827H26.8065V33.6832H19.0224V31.2827ZM31.6822 37V22.4545H37.4208C38.5193 22.4545 39.4568 22.651 40.2333 23.044C41.0146 23.4323 41.6088 23.9839 42.016 24.6989C42.4279 25.4091 42.6339 26.2448 42.6339 27.206C42.6339 28.1719 42.4255 29.0028 42.0089 29.6989C41.5922 30.3902 40.9885 30.9205 40.1978 31.2898C39.4118 31.6591 38.4601 31.8438 37.3427 31.8438H33.5004V29.3722H36.8455C37.4326 29.3722 37.9203 29.2917 38.3086 29.1307C38.6969 28.9697 38.9857 28.7282 39.1751 28.4062C39.3692 28.0843 39.4663 27.6842 39.4663 27.206C39.4663 26.723 39.3692 26.3158 39.1751 25.9844C38.9857 25.6529 38.6945 25.402 38.3015 25.2315C37.9132 25.0563 37.4232 24.9688 36.8313 24.9688H34.7575V37H31.6822ZM39.5373 30.3807L43.1523 37H39.7575L36.2205 30.3807H39.5373Z" fill="#8A2BE2"/>
</svg>
