<svg width="25" height="24" viewBox="0 0 25 24" fill="none" xmlns="http://www.w3.org/2000/svg">
<path d="M7.73808 0C8.43044 0 9.0708 0.0857018 9.65589 0.339379C10.2421 0.509069 10.7221 0.848449 11.1479 1.27182C11.5748 1.6969 11.8944 2.28995 12.1068 3.0527C12.3202 3.81545 12.4275 4.7496 12.4275 5.76602C12.4275 6.95385 12.2672 7.97027 11.8944 8.73302C11.5748 9.49748 11.0417 10.1745 10.4024 10.6836C11.3082 11.1087 12.0006 11.8714 12.4275 12.8896C12.8533 13.906 13.1199 15.1778 13.1199 16.6193C13.1199 17.8071 12.9595 18.8236 12.693 19.672C12.4275 20.5205 12.0006 21.2832 11.5206 21.7923C10.9992 22.3379 10.4228 22.739 9.81625 22.9784C9.17698 23.2338 8.53771 23.4035 7.89844 23.4035H0.757019V0H7.73808ZM7.31117 9.49577C7.89735 9.49577 8.37735 9.24209 8.75008 8.81872C9.1228 8.39536 9.28316 7.6309 9.28316 6.69846C9.28316 6.18939 9.22899 5.68203 9.1228 5.34266C9.01662 5.00328 8.85626 4.74788 8.64389 4.49421C8.43044 4.32452 8.21699 4.15483 7.95045 4.07084C7.6839 3.98514 7.41844 3.98514 7.09772 3.98514H4.00755V9.49748H7.31226M7.47262 19.504C7.79225 19.504 8.11189 19.4183 8.37843 19.3343C8.64498 19.2486 8.91152 19.0807 9.12389 18.8253C9.34101 18.5771 9.52265 18.2594 9.65697 17.8928C9.76316 17.4695 9.87043 16.9604 9.87043 16.3673C9.87043 15.1795 9.65697 14.3328 9.23115 13.738C8.80425 13.2289 8.21807 12.9753 7.52571 12.9753H4.00755V19.5057H7.47153M17.7562 19.42C18.182 20.0988 18.8213 20.4382 19.674 20.4382C20.2602 20.4382 20.7933 20.1845 21.2191 19.7611C21.646 19.2521 21.9126 18.743 22.0187 18.2356H24.63C24.2031 20.2685 23.5638 21.71 22.7122 22.6442C21.8584 23.4909 20.8464 24 19.6209 24C18.8369 24.0038 18.0594 23.7735 17.3293 23.3212C16.6723 22.9315 16.0865 22.2908 15.6239 21.4563C15.129 20.6757 14.7632 19.7144 14.5588 18.6573C14.2922 17.5552 14.185 16.3691 14.185 15.0115C14.185 13.7397 14.2922 12.5536 14.5588 11.4498C14.8155 10.3877 15.1951 9.41059 15.678 8.56847C16.1647 7.77804 16.7434 7.14417 17.3824 6.70189C18.0939 6.24949 18.8541 6.019 19.6209 6.02313C20.5268 6.02313 21.3264 6.27852 22.0187 6.87158C22.7122 7.46463 23.2442 8.14339 23.67 9.16153C24.0969 10.094 24.4176 11.1961 24.63 12.3839C24.7362 13.57 24.7893 14.7579 24.7362 16.1137H17.0097C17.0097 17.4712 17.3293 18.7413 17.7562 19.42ZM21.1129 10.519C20.7402 9.92599 20.154 9.58661 19.4606 9.58661C18.9817 9.58661 18.6079 9.75802 18.2882 10.0117C17.9686 10.2654 17.7562 10.6048 17.5428 10.9441C17.3467 11.272 17.2169 11.685 17.17 12.1302C17.1159 12.5553 17.0628 12.8947 17.0628 13.2324H21.8584C21.7522 11.9606 21.4857 11.1138 21.1129 10.519ZM16.4235 1.6112H22.3915V3.90115H16.4246V1.6112" fill="white"/>
</svg>
