<svg width="232" height="67" viewBox="0 0 232 67" fill="none" xmlns="http://www.w3.org/2000/svg">
<path d="M20.355 9.82031H15.6888C15.6036 9.21662 15.4296 8.6804 15.1668 8.21165C14.904 7.73579 14.5667 7.33097 14.1547 6.99716C13.7428 6.66335 13.267 6.40767 12.7272 6.23011C12.1945 6.05256 11.6157 5.96378 10.9907 5.96378C9.86142 5.96378 8.87775 6.24432 8.03968 6.8054C7.20162 7.35937 6.55176 8.16903 6.09011 9.23438C5.62846 10.2926 5.39764 11.5781 5.39764 13.0909C5.39764 14.6463 5.62846 15.9531 6.09011 17.0114C6.55886 18.0696 7.21227 18.8686 8.05034 19.4084C8.88841 19.9482 9.85787 20.218 10.9587 20.218C11.5766 20.218 12.1483 20.1364 12.6739 19.973C13.2066 19.8097 13.6789 19.5717 14.0908 19.2592C14.5028 18.9396 14.8437 18.5526 15.1135 18.098C15.3905 17.6435 15.5823 17.125 15.6888 16.5426L20.355 16.5639C20.2343 17.5653 19.9324 18.5312 19.4495 19.4616C18.9736 20.3849 18.3309 21.2124 17.5212 21.9439C16.7187 22.6683 15.7599 23.2436 14.6448 23.6697C13.5368 24.0888 12.2833 24.2983 10.8841 24.2983C8.93812 24.2983 7.19806 23.858 5.66397 22.9773C4.13699 22.0966 2.9296 20.8217 2.04181 19.1527C1.16113 17.4837 0.720792 15.4631 0.720792 13.0909C0.720792 10.7116 1.16824 8.6875 2.06312 7.01847C2.95801 5.34943 4.1725 4.07812 5.70659 3.20455C7.24068 2.32386 8.96653 1.88352 10.8841 1.88352C12.1483 1.88352 13.3202 2.06108 14.3998 2.41619C15.4864 2.77131 16.4488 3.28977 17.2868 3.97159C18.1249 4.64631 18.8067 5.47372 19.3323 6.45383C19.865 7.43395 20.2059 8.55611 20.355 9.82031ZM23.5777 24V7.63636H27.9775V10.4915H28.148C28.4463 9.47585 28.947 8.70881 29.6501 8.19034C30.3532 7.66477 31.1629 7.40199 32.0791 7.40199C32.3064 7.40199 32.5514 7.41619 32.8142 7.4446C33.077 7.47301 33.3078 7.51207 33.5067 7.56179V11.5888C33.2936 11.5249 32.9988 11.468 32.6224 11.4183C32.246 11.3686 31.9015 11.3438 31.589 11.3438C30.9214 11.3438 30.3248 11.4893 29.7993 11.7805C29.2808 12.0646 28.8689 12.4624 28.5635 12.9737C28.2652 13.4851 28.116 14.0746 28.116 14.7422V24H23.5777ZM42.5487 24.3196C40.8655 24.3196 39.4166 23.9787 38.2021 23.2969C36.9948 22.608 36.0644 21.6349 35.411 20.3778C34.7575 19.1136 34.4308 17.6186 34.4308 15.8928C34.4308 14.2095 34.7575 12.7322 35.411 11.4609C36.0644 10.1896 36.9841 9.19886 38.1702 8.48864C39.3634 7.77841 40.7625 7.4233 42.3676 7.4233C43.4472 7.4233 44.4521 7.5973 45.3825 7.94531C46.32 8.28622 47.1368 8.80114 47.8328 9.49006C48.536 10.179 49.0828 11.0455 49.4735 12.0895C49.8641 13.1264 50.0594 14.3409 50.0594 15.733V16.9794H36.2419V14.1669H45.7874C45.7874 13.5135 45.6453 12.9347 45.3612 12.4304C45.0771 11.9261 44.683 11.532 44.1787 11.2479C43.6816 10.9567 43.1027 10.8111 42.4422 10.8111C41.7533 10.8111 41.1425 10.9709 40.6098 11.2905C40.0843 11.603 39.6723 12.0256 39.374 12.5582C39.0757 13.0838 38.923 13.6697 38.9159 14.3161V16.9901C38.9159 17.7997 39.0651 18.4993 39.3634 19.0888C39.6688 19.6783 40.0985 20.1328 40.6524 20.4524C41.2064 20.772 41.8634 20.9318 42.6233 20.9318C43.1276 20.9318 43.5892 20.8608 44.0083 20.7188C44.4273 20.5767 44.786 20.3636 45.0843 20.0795C45.3825 19.7955 45.6098 19.4474 45.7661 19.0355L49.9635 19.3125C49.7504 20.321 49.3137 21.2017 48.6531 21.9545C47.9997 22.7003 47.1546 23.2827 46.1176 23.7017C45.0878 24.1136 43.8982 24.3196 42.5487 24.3196ZM57.6872 24.3089C56.6432 24.3089 55.7128 24.1278 54.896 23.7656C54.0793 23.3963 53.433 22.853 52.9571 22.1357C52.4884 21.4112 52.254 20.5092 52.254 19.4297C52.254 18.5206 52.4209 17.7571 52.7547 17.1392C53.0885 16.5213 53.5431 16.0241 54.1183 15.6477C54.6936 15.2713 55.347 14.9872 56.0786 14.7955C56.8172 14.6037 57.5914 14.4688 58.401 14.3906C59.3527 14.2912 60.1198 14.1989 60.7021 14.1136C61.2845 14.0213 61.7071 13.8864 61.9699 13.7088C62.2327 13.5312 62.3641 13.2685 62.3641 12.9205V12.8565C62.3641 12.1818 62.151 11.6598 61.7249 11.2905C61.3058 10.9212 60.7093 10.7365 59.9351 10.7365C59.1183 10.7365 58.4685 10.9176 57.9855 11.2798C57.5026 11.6349 57.183 12.0824 57.0267 12.6222L52.8293 12.2812C53.0423 11.2869 53.4614 10.4276 54.0864 9.70312C54.7114 8.97159 55.5175 8.41051 56.5047 8.01989C57.499 7.62216 58.6496 7.4233 59.9564 7.4233C60.8655 7.4233 61.7355 7.52983 62.5665 7.7429C63.4046 7.95597 64.1468 8.28622 64.7931 8.73366C65.4465 9.18111 65.9614 9.75639 66.3378 10.4595C66.7142 11.1555 66.9024 11.9901 66.9024 12.9631V24H62.5985V21.7308H62.4706C62.2078 22.2422 61.8563 22.6932 61.4159 23.0838C60.9756 23.4673 60.4465 23.7692 59.8286 23.9893C59.2107 24.2024 58.4969 24.3089 57.6872 24.3089ZM58.9869 21.1768C59.6546 21.1768 60.2441 21.0455 60.7554 20.7827C61.2668 20.5128 61.6681 20.1506 61.9593 19.696C62.2504 19.2415 62.396 18.7266 62.396 18.1513V16.4148C62.254 16.5071 62.0587 16.5923 61.8101 16.6705C61.5686 16.7415 61.2952 16.8089 60.9898 16.8729C60.6844 16.9297 60.379 16.983 60.0736 17.0327C59.7682 17.0753 59.4912 17.1143 59.2426 17.1499C58.71 17.228 58.2448 17.3523 57.847 17.5227C57.4493 17.6932 57.1404 17.924 56.9202 18.2152C56.7 18.4993 56.5899 18.8544 56.5899 19.2805C56.5899 19.8984 56.8137 20.3707 57.2611 20.6974C57.7156 21.017 58.2909 21.1768 58.9869 21.1768ZM79.1272 7.63636V11.0455H69.2728V7.63636H79.1272ZM71.51 3.71591H76.0484V18.9716C76.0484 19.3906 76.1123 19.7173 76.2401 19.9517C76.368 20.179 76.5455 20.3388 76.7728 20.4311C77.0072 20.5234 77.2771 20.5696 77.5825 20.5696C77.7955 20.5696 78.0086 20.5518 78.2217 20.5163C78.4347 20.4737 78.5981 20.4418 78.7117 20.4205L79.4255 23.7976C79.1982 23.8686 78.8786 23.9503 78.4667 24.0426C78.0548 24.142 77.5541 24.2024 76.9646 24.2237C75.8708 24.2663 74.912 24.1207 74.0882 23.7869C73.2714 23.4531 72.6357 22.9347 72.1812 22.2315C71.7267 21.5284 71.5029 20.6406 71.51 19.5682V3.71591ZM82.0835 24V7.63636H86.6219V24H82.0835ZM84.3634 5.52699C83.6887 5.52699 83.1098 5.30327 82.6269 4.85582C82.151 4.40128 81.9131 3.85795 81.9131 3.22585C81.9131 2.60085 82.151 2.06463 82.6269 1.61719C83.1098 1.16264 83.6887 0.935368 84.3634 0.935368C85.0381 0.935368 85.6134 1.16264 86.0892 1.61719C86.5722 2.06463 86.8137 2.60085 86.8137 3.22585C86.8137 3.85795 86.5722 4.40128 86.0892 4.85582C85.6134 5.30327 85.0381 5.52699 84.3634 5.52699ZM105.513 7.63636L99.7922 24H94.6785L88.9577 7.63636H93.7517L97.1501 19.3445H97.3206L100.708 7.63636H105.513ZM114.766 24.3196C113.082 24.3196 111.633 23.9787 110.419 23.2969C109.212 22.608 108.281 21.6349 107.628 20.3778C106.974 19.1136 106.648 17.6186 106.648 15.8928C106.648 14.2095 106.974 12.7322 107.628 11.4609C108.281 10.1896 109.201 9.19886 110.387 8.48864C111.58 7.77841 112.979 7.4233 114.584 7.4233C115.664 7.4233 116.669 7.5973 117.599 7.94531C118.537 8.28622 119.354 8.80114 120.05 9.49006C120.753 10.179 121.3 11.0455 121.69 12.0895C122.081 13.1264 122.276 14.3409 122.276 15.733V16.9794H108.459V14.1669H118.004C118.004 13.5135 117.862 12.9347 117.578 12.4304C117.294 11.9261 116.9 11.532 116.396 11.2479C115.898 10.9567 115.32 10.8111 114.659 10.8111C113.97 10.8111 113.359 10.9709 112.827 11.2905C112.301 11.603 111.889 12.0256 111.591 12.5582C111.293 13.0838 111.14 13.6697 111.133 14.3161V16.9901C111.133 17.7997 111.282 18.4993 111.58 19.0888C111.886 19.6783 112.315 20.1328 112.869 20.4524C113.423 20.772 114.08 20.9318 114.84 20.9318C115.344 20.9318 115.806 20.8608 116.225 20.7188C116.644 20.5767 117.003 20.3636 117.301 20.0795C117.599 19.7955 117.827 19.4474 117.983 19.0355L122.18 19.3125C121.967 20.321 121.53 21.2017 120.87 21.9545C120.217 22.7003 119.371 23.2827 118.334 23.7017C117.305 24.1136 116.115 24.3196 114.766 24.3196ZM140.001 24H132.266V2.18182H140.065C142.259 2.18182 144.149 2.61861 145.732 3.49219C147.316 4.35866 148.534 5.60511 149.386 7.23153C150.246 8.85795 150.676 10.804 150.676 13.0696C150.676 15.3423 150.246 17.2955 149.386 18.929C148.534 20.5625 147.309 21.8161 145.711 22.6896C144.12 23.5632 142.217 24 140.001 24ZM136.879 20.0476H139.809C141.173 20.0476 142.32 19.8061 143.25 19.3232C144.188 18.8331 144.891 18.0767 145.359 17.054C145.835 16.0241 146.073 14.696 146.073 13.0696C146.073 11.4574 145.835 10.1399 145.359 9.11719C144.891 8.09446 144.191 7.34162 143.261 6.85866C142.33 6.37571 141.183 6.13423 139.82 6.13423H136.879V20.0476ZM161.465 24.3196C159.782 24.3196 158.333 23.9787 157.118 23.2969C155.911 22.608 154.98 21.6349 154.327 20.3778C153.674 19.1136 153.347 17.6186 153.347 15.8928C153.347 14.2095 153.674 12.7322 154.327 11.4609C154.98 10.1896 155.9 9.19886 157.086 8.48864C158.279 7.77841 159.679 7.4233 161.284 7.4233C162.363 7.4233 163.368 7.5973 164.299 7.94531C165.236 8.28622 166.053 8.80114 166.749 9.49006C167.452 10.179 167.999 11.0455 168.389 12.0895C168.78 13.1264 168.975 14.3409 168.975 15.733V16.9794H155.158V14.1669H164.703C164.703 13.5135 164.561 12.9347 164.277 12.4304C163.993 11.9261 163.599 11.532 163.095 11.2479C162.598 10.9567 162.019 10.8111 161.358 10.8111C160.669 10.8111 160.059 10.9709 159.526 11.2905C159 11.603 158.588 12.0256 158.29 12.5582C157.992 13.0838 157.839 13.6697 157.832 14.3161V16.9901C157.832 17.7997 157.981 18.4993 158.279 19.0888C158.585 19.6783 159.014 20.1328 159.568 20.4524C160.122 20.772 160.779 20.9318 161.539 20.9318C162.044 20.9318 162.505 20.8608 162.924 20.7188C163.343 20.5767 163.702 20.3636 164 20.0795C164.299 19.7955 164.526 19.4474 164.682 19.0355L168.88 19.3125C168.666 20.321 168.23 21.2017 167.569 21.9545C166.916 22.7003 166.071 23.2827 165.034 23.7017C164.004 24.1136 162.814 24.3196 161.465 24.3196ZM185.552 12.3026L181.397 12.5582C181.326 12.2031 181.174 11.8835 180.939 11.5994C180.705 11.3082 180.396 11.0774 180.012 10.907C179.636 10.7294 179.185 10.6406 178.659 10.6406C177.956 10.6406 177.363 10.7898 176.88 11.0881C176.397 11.3793 176.156 11.7699 176.156 12.2599C176.156 12.6506 176.312 12.9808 176.625 13.2507C176.937 13.5206 177.473 13.7372 178.233 13.9006L181.195 14.4972C182.786 14.8239 183.972 15.3494 184.753 16.0739C185.534 16.7983 185.925 17.75 185.925 18.929C185.925 20.0014 185.609 20.9425 184.977 21.7521C184.352 22.5618 183.492 23.1939 182.399 23.6484C181.312 24.0959 180.059 24.3196 178.638 24.3196C176.472 24.3196 174.746 23.8686 173.46 22.9666C172.182 22.0575 171.433 20.8217 171.213 19.2592L175.676 19.0249C175.811 19.6854 176.138 20.1896 176.657 20.5376C177.175 20.8786 177.839 21.049 178.649 21.049C179.444 21.049 180.083 20.8963 180.566 20.5909C181.056 20.2784 181.305 19.8771 181.312 19.3871C181.305 18.9751 181.131 18.6378 180.79 18.375C180.449 18.1051 179.924 17.8991 179.213 17.7571L176.38 17.1925C174.782 16.8729 173.592 16.3189 172.811 15.5305C172.036 14.7422 171.649 13.7372 171.649 12.5156C171.649 11.4645 171.934 10.5589 172.502 9.79901C173.077 9.03906 173.883 8.45313 174.92 8.04119C175.964 7.62926 177.186 7.4233 178.585 7.4233C180.652 7.4233 182.278 7.86009 183.464 8.73366C184.657 9.60724 185.353 10.7969 185.552 12.3026ZM188.783 24V7.63636H193.321V24H188.783ZM191.063 5.52699C190.388 5.52699 189.809 5.30327 189.326 4.85582C188.85 4.40128 188.612 3.85795 188.612 3.22585C188.612 2.60085 188.85 2.06463 189.326 1.61719C189.809 1.16264 190.388 0.935368 191.063 0.935368C191.737 0.935368 192.313 1.16264 192.788 1.61719C193.271 2.06463 193.513 2.60085 193.513 3.22585C193.513 3.85795 193.271 4.40128 192.788 4.85582C192.313 5.30327 191.737 5.52699 191.063 5.52699ZM204.329 30.4773C202.859 30.4773 201.598 30.2749 200.547 29.87C199.503 29.4723 198.672 28.929 198.054 28.2401C197.436 27.5511 197.035 26.777 196.85 25.9176L201.047 25.353C201.175 25.6797 201.378 25.9851 201.655 26.2692C201.932 26.5533 202.297 26.7805 202.752 26.951C203.214 27.1286 203.775 27.2173 204.435 27.2173C205.422 27.2173 206.236 26.9759 206.875 26.4929C207.521 26.017 207.844 25.218 207.844 24.0959V21.1023H207.653C207.454 21.5568 207.155 21.9865 206.758 22.3913C206.36 22.7962 205.849 23.1264 205.224 23.3821C204.599 23.6378 203.853 23.7656 202.986 23.7656C201.758 23.7656 200.639 23.4815 199.631 22.9134C198.629 22.3381 197.83 21.4609 197.234 20.282C196.644 19.0959 196.349 17.5973 196.349 15.7862C196.349 13.9325 196.651 12.3842 197.255 11.1413C197.859 9.89844 198.661 8.96804 199.663 8.35014C200.671 7.73224 201.775 7.4233 202.976 7.4233C203.892 7.4233 204.659 7.57955 205.277 7.89205C205.895 8.19744 206.392 8.58097 206.768 9.04261C207.152 9.49716 207.447 9.9446 207.653 10.3849H207.823V7.63636H212.329V24.1598C212.329 25.5518 211.989 26.7166 211.307 27.6541C210.625 28.5916 209.68 29.2947 208.473 29.7635C207.273 30.2393 205.891 30.4773 204.329 30.4773ZM204.425 20.3565C205.156 20.3565 205.774 20.1754 206.278 19.8132C206.79 19.4439 207.18 18.9183 207.45 18.2365C207.727 17.5476 207.866 16.7237 207.866 15.7649C207.866 14.8061 207.731 13.9751 207.461 13.272C207.191 12.5618 206.8 12.0114 206.289 11.6207C205.778 11.2301 205.156 11.0348 204.425 11.0348C203.679 11.0348 203.05 11.2372 202.539 11.642C202.028 12.0398 201.641 12.5937 201.378 13.304C201.115 14.0142 200.984 14.8345 200.984 15.7649C200.984 16.7095 201.115 17.5263 201.378 18.2152C201.648 18.897 202.035 19.4261 202.539 19.8026C203.05 20.1719 203.679 20.3565 204.425 20.3565ZM220.479 14.5398V24H215.941V7.63636H220.266V10.5234H220.458C220.82 9.57173 221.427 8.81889 222.28 8.26491C223.132 7.70384 224.165 7.4233 225.38 7.4233C226.516 7.4233 227.507 7.67187 228.352 8.16903C229.197 8.66619 229.854 9.37642 230.323 10.2997C230.792 11.2159 231.026 12.3097 231.026 13.581V24H226.488V14.3906C226.495 13.3892 226.239 12.608 225.721 12.0469C225.202 11.4787 224.489 11.1946 223.579 11.1946C222.969 11.1946 222.429 11.326 221.96 11.5888C221.498 11.8516 221.136 12.2351 220.873 12.7393C220.618 13.2365 220.486 13.8366 220.479 14.5398ZM44.4917 60.3196C42.986 60.3196 41.6863 60.0497 40.5925 59.5099C39.4988 58.9702 38.6571 58.2386 38.0676 57.3153C37.4853 56.3849 37.1941 55.348 37.1941 54.2045C37.1941 53.3523 37.3645 52.5959 37.7054 51.9354C38.0463 51.2749 38.5222 50.6676 39.133 50.1136C39.7438 49.5526 40.454 48.995 41.2637 48.4411L45.4931 45.6605C46.04 45.3125 46.4412 44.9467 46.6969 44.5632C46.9526 44.1726 47.0804 43.75 47.0804 43.2955C47.0804 42.8622 46.9064 42.4609 46.5584 42.0916C46.2104 41.7223 45.7168 41.5412 45.0776 41.5483C44.6515 41.5483 44.2821 41.6442 43.9696 41.8359C43.6571 42.0206 43.4121 42.2656 43.2346 42.571C43.0641 42.8693 42.9789 43.2031 42.9789 43.5724C42.9789 44.027 43.1067 44.4886 43.3624 44.9574C43.6181 45.4261 43.959 45.9233 44.3851 46.4489C44.8113 46.9673 45.2765 47.5284 45.7807 48.1321L56.1252 60H51.3951L42.7658 50.3906C42.1976 49.7443 41.6294 49.0696 41.0613 48.3665C40.5002 47.6562 40.0314 46.9034 39.655 46.108C39.2786 45.3054 39.0904 44.4354 39.0904 43.4979C39.0904 42.4396 39.3354 41.4879 39.8255 40.6428C40.3226 39.7976 41.0186 39.13 41.9135 38.6399C42.8084 38.1428 43.8525 37.8942 45.0456 37.8942C46.2104 37.8942 47.2154 38.1321 48.0605 38.608C48.9128 39.0767 49.5662 39.7017 50.0208 40.483C50.4824 41.2571 50.7132 42.1094 50.7132 43.0398C50.7132 44.0696 50.4576 45.0036 49.9462 45.8416C49.4419 46.6726 48.7317 47.4183 47.8155 48.0788L43.3624 51.2855C42.7587 51.7259 42.3113 52.1768 42.0201 52.6385C41.736 53.093 41.5939 53.5298 41.5939 53.9489C41.5939 54.4673 41.7218 54.9325 41.9775 55.3445C42.2331 55.7564 42.5953 56.0831 43.0641 56.3246C43.5328 56.5589 44.0833 56.6761 44.7154 56.6761C45.4824 56.6761 46.2388 56.5021 46.9846 56.1541C47.7374 55.799 48.4192 55.2983 49.03 54.652C49.6479 53.9986 50.1415 53.2244 50.5108 52.3295C50.8801 51.4347 51.0648 50.4439 51.0648 49.3572H54.8255C54.8255 50.6925 54.6799 51.8963 54.3887 52.9688C54.0975 54.0341 53.6926 54.9645 53.1742 55.7599C52.6557 56.5483 52.0627 57.1946 51.3951 57.6989C51.182 57.8338 50.976 57.9616 50.7772 58.0824C50.5783 58.2031 50.3723 58.331 50.1593 58.4659C49.3496 59.1193 48.4441 59.5916 47.4426 59.8828C46.4483 60.174 45.4647 60.3196 44.4917 60.3196ZM65.0447 60V38.1818H73.6527C75.3075 38.1818 76.7173 38.4979 77.8821 39.13C79.0469 39.755 79.9347 40.625 80.5455 41.7401C81.1634 42.848 81.4723 44.1264 81.4723 45.5753C81.4723 47.0241 81.1598 48.3026 80.5348 49.4105C79.9098 50.5185 79.0043 51.3814 77.8182 51.9993C76.6392 52.6172 75.2116 52.9261 73.5355 52.9261H68.049V49.2294H72.7898C73.6776 49.2294 74.4091 49.0767 74.9844 48.7713C75.5668 48.4588 76 48.0291 76.2841 47.4822C76.5753 46.9283 76.7209 46.2926 76.7209 45.5753C76.7209 44.8509 76.5753 44.2187 76.2841 43.679C76 43.1321 75.5668 42.7095 74.9844 42.4112C74.402 42.1058 73.6634 41.9531 72.7685 41.9531H69.6577V60H65.0447ZM84.3833 60V43.6364H88.7832V46.4915H88.9537C89.252 45.4759 89.7527 44.7088 90.4558 44.1903C91.1589 43.6648 91.9686 43.402 92.8848 43.402C93.112 43.402 93.3571 43.4162 93.6199 43.4446C93.8826 43.473 94.1135 43.5121 94.3123 43.5618V47.5888C94.0993 47.5249 93.8045 47.468 93.4281 47.4183C93.0517 47.3686 92.7072 47.3438 92.3947 47.3438C91.7271 47.3438 91.1305 47.4893 90.6049 47.7805C90.0865 48.0646 89.6745 48.4624 89.3691 48.9737C89.0708 49.4851 88.9217 50.0746 88.9217 50.7422V60H84.3833ZM96.6587 60V43.6364H101.197V60H96.6587ZM98.9386 41.527C98.2638 41.527 97.685 41.3033 97.2021 40.8558C96.7262 40.4013 96.4883 39.858 96.4883 39.2259C96.4883 38.6009 96.7262 38.0646 97.2021 37.6172C97.685 37.1626 98.2638 36.9354 98.9386 36.9354C99.6133 36.9354 100.189 37.1626 100.664 37.6172C101.147 38.0646 101.389 38.6009 101.389 39.2259C101.389 39.858 101.147 40.4013 100.664 40.8558C100.189 41.3033 99.6133 41.527 98.9386 41.527ZM109.371 50.5398V60H104.833V43.6364H109.158V46.5234H109.35C109.712 45.5717 110.319 44.8189 111.171 44.2649C112.024 43.7038 113.057 43.4233 114.271 43.4233C115.408 43.4233 116.399 43.6719 117.244 44.169C118.089 44.6662 118.746 45.3764 119.215 46.2997C119.683 47.2159 119.918 48.3097 119.918 49.581V60H115.379V50.3906C115.387 49.3892 115.131 48.608 114.612 48.0469C114.094 47.4787 113.38 47.1946 112.471 47.1946C111.86 47.1946 111.32 47.326 110.852 47.5888C110.39 47.8516 110.028 48.2351 109.765 48.7393C109.509 49.2365 109.378 49.8366 109.371 50.5398ZM132.199 43.6364V47.0455H122.344V43.6364H132.199ZM124.581 39.7159H129.12V54.9716C129.12 55.3906 129.184 55.7173 129.311 55.9517C129.439 56.179 129.617 56.3388 129.844 56.4311C130.078 56.5234 130.348 56.5696 130.654 56.5696C130.867 56.5696 131.08 56.5518 131.293 56.5163C131.506 56.4737 131.669 56.4418 131.783 56.4205L132.497 59.7976C132.27 59.8686 131.95 59.9503 131.538 60.0426C131.126 60.142 130.625 60.2024 130.036 60.2237C128.942 60.2663 127.983 60.1207 127.159 59.7869C126.343 59.4531 125.707 58.9347 125.252 58.2315C124.798 57.5284 124.574 56.6406 124.581 55.5682V39.7159ZM135.155 60V43.6364H139.693V60H135.155ZM137.435 41.527C136.76 41.527 136.181 41.3033 135.698 40.8558C135.222 40.4013 134.984 39.858 134.984 39.2259C134.984 38.6009 135.222 38.0646 135.698 37.6172C136.181 37.1626 136.76 36.9354 137.435 36.9354C138.109 36.9354 138.685 37.1626 139.161 37.6172C139.643 38.0646 139.885 38.6009 139.885 39.2259C139.885 39.858 139.643 40.4013 139.161 40.8558C138.685 41.3033 138.109 41.527 137.435 41.527ZM147.867 50.5398V60H143.329V43.6364H147.654V46.5234H147.846C148.208 45.5717 148.815 44.8189 149.667 44.2649C150.52 43.7038 151.553 43.4233 152.768 43.4233C153.904 43.4233 154.895 43.6719 155.74 44.169C156.585 44.6662 157.242 45.3764 157.711 46.2997C158.18 47.2159 158.414 48.3097 158.414 49.581V60H153.876V50.3906C153.883 49.3892 153.627 48.608 153.108 48.0469C152.59 47.4787 151.876 47.1946 150.967 47.1946C150.356 47.1946 149.817 47.326 149.348 47.5888C148.886 47.8516 148.524 48.2351 148.261 48.7393C148.006 49.2365 147.874 49.8366 147.867 50.5398ZM169.363 66.4773C167.893 66.4773 166.632 66.2749 165.581 65.87C164.537 65.4723 163.706 64.929 163.088 64.2401C162.47 63.5511 162.069 62.777 161.884 61.9176L166.082 61.353C166.21 61.6797 166.412 61.9851 166.689 62.2692C166.966 62.5533 167.332 62.7805 167.786 62.951C168.248 63.1286 168.809 63.2173 169.469 63.2173C170.457 63.2173 171.27 62.9759 171.909 62.4929C172.555 62.017 172.879 61.218 172.879 60.0959V57.1023H172.687C172.488 57.5568 172.19 57.9865 171.792 58.3913C171.394 58.7962 170.883 59.1264 170.258 59.3821C169.633 59.6378 168.887 59.7656 168.021 59.7656C166.792 59.7656 165.673 59.4815 164.665 58.9134C163.663 58.3381 162.864 57.4609 162.268 56.282C161.678 55.0959 161.384 53.5973 161.384 51.7862C161.384 49.9325 161.685 48.3842 162.289 47.1413C162.893 45.8984 163.695 44.968 164.697 44.3501C165.705 43.7322 166.81 43.4233 168.01 43.4233C168.926 43.4233 169.693 43.5795 170.311 43.892C170.929 44.1974 171.426 44.581 171.803 45.0426C172.186 45.4972 172.481 45.9446 172.687 46.3849H172.857V43.6364H177.364V60.1598C177.364 61.5518 177.023 62.7166 176.341 63.6541C175.659 64.5916 174.714 65.2947 173.507 65.7635C172.307 66.2393 170.925 66.4773 169.363 66.4773ZM169.459 56.3565C170.19 56.3565 170.808 56.1754 171.312 55.8132C171.824 55.4439 172.214 54.9183 172.484 54.2365C172.761 53.5476 172.9 52.7237 172.9 51.7649C172.9 50.8061 172.765 49.9751 172.495 49.272C172.225 48.5618 171.835 48.0114 171.323 47.6207C170.812 47.2301 170.19 47.0348 169.459 47.0348C168.713 47.0348 168.085 47.2372 167.573 47.642C167.062 48.0398 166.675 48.5937 166.412 49.304C166.149 50.0142 166.018 50.8345 166.018 51.7649C166.018 52.7095 166.149 53.5263 166.412 54.2152C166.682 54.897 167.069 55.4261 167.573 55.8026C168.085 56.1719 168.713 56.3565 169.459 56.3565ZM194.59 48.3026L190.435 48.5582C190.364 48.2031 190.212 47.8835 189.977 47.5994C189.743 47.3082 189.434 47.0774 189.05 46.907C188.674 46.7294 188.223 46.6406 187.697 46.6406C186.994 46.6406 186.401 46.7898 185.918 47.0881C185.435 47.3793 185.194 47.7699 185.194 48.2599C185.194 48.6506 185.35 48.9808 185.663 49.2507C185.975 49.5206 186.511 49.7372 187.271 49.9006L190.233 50.4972C191.824 50.8239 193.01 51.3494 193.791 52.0739C194.572 52.7983 194.963 53.75 194.963 54.929C194.963 56.0014 194.647 56.9425 194.015 57.7521C193.39 58.5618 192.531 59.1939 191.437 59.6484C190.35 60.0959 189.097 60.3196 187.676 60.3196C185.51 60.3196 183.784 59.8686 182.499 58.9666C181.22 58.0575 180.471 56.8217 180.251 55.2592L184.714 55.0249C184.849 55.6854 185.176 56.1896 185.695 56.5376C186.213 56.8786 186.877 57.049 187.687 57.049C188.482 57.049 189.121 56.8963 189.604 56.5909C190.094 56.2784 190.343 55.8771 190.35 55.3871C190.343 54.9751 190.169 54.6378 189.828 54.375C189.487 54.1051 188.962 53.8991 188.251 53.7571L185.418 53.1925C183.82 52.8729 182.63 52.3189 181.849 51.5305C181.075 50.7422 180.688 49.7372 180.688 48.5156C180.688 47.4645 180.972 46.5589 181.54 45.799C182.115 45.0391 182.921 44.4531 183.958 44.0412C185.002 43.6293 186.224 43.4233 187.623 43.4233C189.69 43.4233 191.316 43.8601 192.502 44.7337C193.695 45.6072 194.391 46.7969 194.59 48.3026Z" fill="white"/>
</svg>
