<svg width="23" height="22" viewBox="0 0 23 22" fill="none" xmlns="http://www.w3.org/2000/svg">
<path d="M17.627 3.80342C17.2756 3.80342 16.9386 3.94301 16.6901 4.1915C16.4416 4.43999 16.302 4.77701 16.302 5.12842C16.302 5.47983 16.4416 5.81685 16.6901 6.06533C16.9386 6.31382 17.2756 6.45342 17.627 6.45342C17.9771 6.45342 18.3129 6.31435 18.5604 6.0668C18.808 5.81925 18.947 5.4835 18.947 5.13342C18.947 4.78333 18.808 4.44758 18.5604 4.20004C18.3129 3.95249 17.9771 3.81342 17.627 3.81342V3.80342ZM11.757 14.6834C11.2596 14.7094 10.7621 14.6339 10.2949 14.4614C9.8276 14.289 9.40032 14.0232 9.03905 13.6803C8.67779 13.3375 8.3901 12.9246 8.1935 12.467C7.99691 12.0094 7.89552 11.5165 7.89552 11.0184C7.89552 10.5203 7.99691 10.0275 8.1935 9.56984C8.3901 9.1122 8.67779 8.69937 9.03905 8.35649C9.40032 8.01361 9.8276 7.74785 10.2949 7.5754C10.7621 7.40296 11.2596 7.32743 11.757 7.35342C12.6959 7.40248 13.5802 7.81001 14.2274 8.49195C14.8747 9.17389 15.2355 10.0782 15.2355 11.0184C15.2355 11.9586 14.8747 12.8629 14.2274 13.5449C13.5802 14.2268 12.6959 14.6344 11.757 14.6834ZM11.757 5.36342C10.2586 5.36342 8.82146 5.95868 7.76187 7.01826C6.70229 8.07784 6.10703 9.51494 6.10703 11.0134C6.10703 12.5119 6.70229 13.949 7.76187 15.0086C8.82146 16.0682 10.2586 16.6634 11.757 16.6634C13.2555 16.6634 14.6926 16.0682 15.7522 15.0086C16.8118 13.949 17.407 12.5119 17.407 11.0134C17.407 9.51494 16.8118 8.07784 15.7522 7.01826C14.6926 5.95868 13.2555 5.36342 11.757 5.36342ZM11.757 0.00341721C8.76703 0.00341721 8.39703 0.0134173 7.21703 0.0734173C6.30515 0.0878279 5.40233 0.256895 4.54703 0.573417C3.81512 0.85421 3.15312 1.29099 2.60703 1.85342C2.04821 2.40049 1.61489 3.06242 1.33703 3.79342C1.01673 4.65149 0.844285 5.55767 0.827028 6.47342C0.760172 7.98243 0.736829 9.49306 0.757028 11.0034C0.757028 13.9934 0.767028 14.3634 0.827028 15.5434C0.877028 16.7134 1.06703 17.5134 1.32703 18.2134C1.60782 18.9453 2.0446 19.6073 2.60703 20.1534C3.15411 20.7122 3.81603 21.1456 4.54703 21.4234C5.24703 21.6934 6.04703 21.8834 7.21703 21.9334C8.39703 22.0034 8.76703 22.0034 11.757 22.0034C14.747 22.0034 15.117 21.9934 16.287 21.9334C17.2022 21.9194 18.1084 21.7503 18.967 21.4334C19.6989 21.1526 20.3609 20.7158 20.907 20.1534C21.4658 19.6063 21.8992 18.9444 22.177 18.2134C22.447 17.5134 22.637 16.7134 22.687 15.5434C22.747 14.3634 22.757 13.9934 22.757 11.0034C22.757 8.01342 22.747 7.64342 22.687 6.47342C22.6736 5.55819 22.5045 4.65193 22.187 3.79342C21.9062 3.06151 21.4695 2.39951 20.907 1.85342C20.36 1.2946 19.698 0.861281 18.967 0.583417C18.267 0.313417 17.467 0.123417 16.287 0.0734173C14.778 0.00601152 13.2674 -0.0173318 11.757 0.00341721ZM11.757 1.98342C14.697 1.98342 15.037 1.99342 16.197 2.05342C16.8975 2.05739 17.5917 2.18606 18.247 2.43342C18.757 2.63342 19.127 2.86342 19.507 3.25342C19.897 3.63342 20.137 4.00342 20.327 4.51342C20.487 4.90342 20.657 5.48342 20.707 6.56342C20.767 7.72342 20.777 8.06342 20.777 11.0034C20.777 13.9434 20.767 14.2934 20.707 15.4534C20.6984 16.1502 20.5699 16.8403 20.327 17.4934C20.127 18.0034 19.897 18.3734 19.507 18.7534C19.1545 19.121 18.7239 19.4046 18.247 19.5834C17.857 19.7334 17.277 19.9134 16.197 19.9534C15.037 20.0134 14.697 20.0234 11.757 20.0234C8.81703 20.0234 8.46703 20.0134 7.30703 19.9534C6.61084 19.948 5.92078 19.8228 5.26703 19.5834C4.75703 19.3834 4.38703 19.1434 4.00703 18.7534C3.63975 18.4007 3.35614 17.9701 3.17703 17.4934C2.93762 16.8397 2.81246 16.1496 2.80703 15.4534C2.73537 13.9712 2.71202 12.4871 2.73703 11.0034C2.73703 8.06342 2.74703 7.72342 2.80703 6.56342C2.84703 5.48342 3.02703 4.90342 3.17703 4.51342C3.37703 4.00342 3.61703 3.63342 4.00703 3.25342C4.36058 2.88949 4.7911 2.60931 5.26703 2.43342C5.65703 2.27342 6.23703 2.10342 7.30703 2.05342C8.46703 1.99342 8.81703 1.98342 11.757 1.98342Z" fill="white"/>
</svg>
