<svg width="24" height="25" viewBox="0 0 24 25" fill="none" xmlns="http://www.w3.org/2000/svg">
<path d="M5.04375 3.16785C5.04341 3.87506 4.77776 4.55316 4.30524 5.05298C3.83272 5.55279 3.19203 5.83339 2.52412 5.83304C1.85621 5.83268 1.21579 5.55141 0.74374 5.05109C0.271692 4.55077 0.0066854 3.87239 0.00701936 3.16519C0.00735331 2.45798 0.273 1.77988 0.745521 1.28006C1.21804 0.780243 1.85873 0.499647 2.52664 0.5C3.19455 0.500354 3.83498 0.781629 4.30702 1.28195C4.77907 1.78227 5.04408 2.46065 5.04375 3.16785ZM5.1193 7.80759H0.0825702V24.5H5.1193V7.80759ZM13.0773 7.80759H8.06578V24.5H13.027V15.7405C13.027 10.8608 19.0333 10.4075 19.0333 15.7405V24.5H24.007V13.9273C24.007 5.70104 15.1172 6.00769 13.027 10.0475L13.0773 7.80759Z" fill="white"/>
</svg>
