<svg width="20" height="20" viewBox="0 0 20 20" fill="none" xmlns="http://www.w3.org/2000/svg">
<path d="M18 0H2C0.9 0 0.00999999 1.125 0.00999999 2.5L0 17.5C0 18.875 0.9 20 2 20H18C19.1 20 20 18.875 20 17.5V2.5C20 1.125 19.1 0 18 0ZM17.6 5.3125L10.53 10.8375C10.21 11.0875 9.79 11.0875 9.47 10.8375L2.4 5.3125C2.29973 5.24214 2.21192 5.14708 2.14189 5.03307C2.07186 4.91906 2.02106 4.78847 1.99258 4.64921C1.96409 4.50995 1.9585 4.36492 1.97616 4.22288C1.99381 4.08085 2.03434 3.94477 2.09528 3.82288C2.15623 3.70099 2.23632 3.59582 2.33073 3.51374C2.42513 3.43167 2.53187 3.37439 2.6445 3.34537C2.75712 3.31636 2.87328 3.31621 2.98595 3.34494C3.09863 3.37366 3.20546 3.43067 3.3 3.5125L10 8.75L16.7 3.5125C16.7945 3.43067 16.9014 3.37366 17.014 3.34494C17.1267 3.31621 17.2429 3.31636 17.3555 3.34537C17.4681 3.37439 17.5749 3.43167 17.6693 3.51374C17.7637 3.59582 17.8438 3.70099 17.9047 3.82288C17.9657 3.94477 18.0062 4.08085 18.0238 4.22288C18.0415 4.36492 18.0359 4.50995 18.0074 4.64921C17.9789 4.78847 17.9281 4.91906 17.8581 5.03307C17.7881 5.14708 17.7003 5.24214 17.6 5.3125Z" fill="white"/>
</svg>
