<svg width="40" height="40" viewBox="0 0 40 40" fill="none" xmlns="http://www.w3.org/2000/svg">
<rect x="0.15" y="0.15" width="39.7" height="39.7" rx="9.85" stroke="white" stroke-width="0.3"/>
<path d="M28 25.5C28.3852 25.5002 28.7556 25.6486 29.0344 25.9144C29.3132 26.1802 29.479 26.5431 29.4975 26.9279C29.516 27.3127 29.3858 27.6898 29.1338 27.9812C28.8818 28.2726 28.5274 28.4558 28.144 28.493L28 28.5H12C11.6148 28.4998 11.2444 28.3514 10.9656 28.0856C10.6868 27.8198 10.521 27.4569 10.5025 27.0721C10.484 26.6873 10.6142 26.3102 10.8662 26.0188C11.1182 25.7274 11.4726 25.5442 11.856 25.507L12 25.5H28ZM28 18.5C28.3978 18.5 28.7794 18.658 29.0607 18.9393C29.342 19.2206 29.5 19.6022 29.5 20C29.5 20.3978 29.342 20.7794 29.0607 21.0607C28.7794 21.342 28.3978 21.5 28 21.5H12C11.6022 21.5 11.2206 21.342 10.9393 21.0607C10.658 20.7794 10.5 20.3978 10.5 20C10.5 19.6022 10.658 19.2206 10.9393 18.9393C11.2206 18.658 11.6022 18.5 12 18.5H28ZM28 11.5C28.3978 11.5 28.7794 11.658 29.0607 11.9393C29.342 12.2206 29.5 12.6022 29.5 13C29.5 13.3978 29.342 13.7794 29.0607 14.0607C28.7794 14.342 28.3978 14.5 28 14.5H12C11.6022 14.5 11.2206 14.342 10.9393 14.0607C10.658 13.7794 10.5 13.3978 10.5 13C10.5 12.6022 10.658 12.2206 10.9393 11.9393C11.2206 11.658 11.6022 11.5 12 11.5H28Z" fill="white"/>
</svg>
