<svg width="20" height="21" viewBox="0 0 20 21" fill="none" xmlns="http://www.w3.org/2000/svg">
<path d="M18.0404 14.1386L15.2125 13.8158C14.88 13.7767 14.5429 13.8135 14.2267 13.9234C13.9104 14.0334 13.6232 14.2135 13.3866 14.4504L11.338 16.499C8.17742 14.8915 5.60846 12.3225 4.00102 9.16193L6.06073 7.10221C6.53947 6.62347 6.77327 5.95546 6.69534 5.27631L6.37246 2.47065C6.30934 1.92752 6.04869 1.42658 5.64014 1.06319C5.23159 0.699803 4.70367 0.499352 4.15689 0.500002H2.23079C0.972706 0.500002 -0.0738448 1.54656 0.00408987 2.80465C0.594166 12.3127 8.19836 19.9058 17.6953 20.4959C18.9533 20.5738 19.9999 19.5273 19.9999 18.2692V16.3431C20.011 15.2186 19.1649 14.2722 18.0404 14.1386Z" fill="white"/>
</svg>
