<svg width="24" height="25" viewBox="0 0 24 25" fill="none" xmlns="http://www.w3.org/2000/svg">
<path d="M19.0478 4.26C18.0015 3.2195 17.4249 1.88324 17.4254 0.5H12.6958V17.0333C12.6593 17.928 12.2257 18.7755 11.4863 19.3973C10.7468 20.019 9.75924 20.3665 8.73151 20.3667C6.55804 20.3667 4.75192 18.82 4.75192 16.9C4.75192 14.6067 7.29273 12.8867 9.91008 13.5933V9.38C4.62947 8.76667 0.00701904 12.34 0.00701904 16.9C0.00701904 21.34 4.23151 24.5 8.7162 24.5C13.5223 24.5 17.4254 21.1 17.4254 16.9V8.51333C19.3432 9.71313 21.6458 10.3569 24.007 10.3533V6.23333C24.007 6.23333 21.1295 6.35333 19.0478 4.26Z" fill="white"/>
</svg>
