<svg width="25" height="24" viewBox="0 0 25 24" fill="none" xmlns="http://www.w3.org/2000/svg">
<path d="M24.757 2.84906C23.8582 3.33808 22.905 3.65924 21.9291 3.80191C22.9569 3.04475 23.726 1.85384 24.093 0.45101C23.1276 1.15768 22.0692 1.65293 20.9672 1.92083C20.2262 0.94565 19.244 0.298907 18.1733 0.0811439C17.1026 -0.136619 16.0035 0.0868006 15.0467 0.716669C14.0899 1.34654 13.3291 2.34756 12.8825 3.56412C12.436 4.78068 12.3288 6.14462 12.5775 7.44388C10.6195 7.32339 8.704 6.69771 6.95539 5.60749C5.20678 4.51727 3.66414 2.98688 2.42766 1.11569C1.99003 2.04023 1.76006 3.09122 1.76129 4.16104C1.76129 6.26078 2.63134 8.1158 3.95113 9.20187C3.1694 9.17155 2.40487 8.91188 1.72126 8.44452V8.51837C1.72122 9.91705 2.11453 11.2727 2.83447 12.3554C3.5544 13.438 4.55665 14.1811 5.67122 14.4585C4.94556 14.7006 4.18459 14.7363 3.44605 14.5627C3.76031 15.7667 4.37287 16.8196 5.19793 17.5739C6.02299 18.3283 7.01922 18.7463 8.04709 18.7695C7.02558 19.7563 5.85593 20.4857 4.60503 20.9161C3.35414 21.3464 2.04654 21.4693 0.757019 21.2776C3.00776 23.0578 5.62778 24.003 8.30374 24C17.3622 24 22.314 14.7713 22.314 6.76762C22.314 6.50696 22.3093 6.24341 22.2999 5.9842C23.2635 5.12744 24.0951 4.06628 24.7558 2.85051" fill="white"/>
</svg>
