<svg width="59" height="60" viewBox="0 0 59 60" fill="none" xmlns="http://www.w3.org/2000/svg">
<rect width="59" height="60" rx="10" fill="white"/>
<path d="M38.0006 24.6337C35.0135 19.9981 28.8965 18.6246 24.1658 21.5004C19.5494 24.3762 18.063 30.6429 21.0501 35.2642L21.2931 35.6362L20.2926 39.3848L24.0372 38.3833L24.4088 38.6265C26.0238 39.4992 27.7817 40 29.5253 40C31.3976 40 33.2699 39.4992 34.8849 38.4977C39.5013 35.4931 40.8733 29.3552 38.0006 24.6051V24.6337ZM35.3851 34.277C34.8849 35.021 34.256 35.5217 33.3842 35.6505C32.884 35.6505 32.2551 35.8937 29.7683 34.9065C27.6531 33.905 25.8951 32.2739 24.6517 30.3997C23.9085 29.5269 23.5226 28.3966 23.4083 27.2663C23.4083 26.2648 23.7799 25.392 24.4088 24.7625C24.6517 24.5193 24.909 24.3905 25.1519 24.3905H25.7808C26.0238 24.3905 26.281 24.3905 26.4097 24.8913C26.6526 25.5208 27.2815 27.0231 27.2815 27.1519C27.4101 27.2806 27.3529 28.2392 26.7813 28.7829C26.4668 29.1406 26.4097 29.1549 26.5383 29.4124C27.0385 30.1564 27.6674 30.9147 28.2819 31.5443C29.0251 32.1738 29.7826 32.6746 30.6544 33.0466C30.8974 33.1753 31.1546 33.1753 31.2833 32.9178C31.4119 32.6746 32.0265 32.045 32.2837 31.7875C32.5267 31.5443 32.6553 31.5443 32.9126 31.6587L34.9135 32.6602C35.1565 32.789 35.4137 32.9035 35.5423 33.0322C35.671 33.4042 35.671 33.905 35.4137 34.277H35.3851Z" fill="#00FF0A"/>
</svg>
