<svg width="25" height="24" viewBox="0 0 25 24" fill="none" xmlns="http://www.w3.org/2000/svg">
<path fill-rule="evenodd" clip-rule="evenodd" d="M12.757 3.99988C13.612 3.99988 14.489 4.02188 15.339 4.05788L16.343 4.10588L17.304 4.16288L18.204 4.22388L19.026 4.28788C19.9181 4.35616 20.7575 4.73682 21.3965 5.36292C22.0356 5.98901 22.4334 6.82042 22.52 7.71088L22.56 8.13588L22.635 9.04588C22.705 9.98888 22.757 11.0169 22.757 11.9999C22.757 12.9829 22.705 14.0109 22.635 14.9539L22.56 15.8639C22.547 16.0099 22.534 16.1509 22.52 16.2889C22.4334 17.1795 22.0354 18.011 21.3962 18.6371C20.7569 19.2633 19.9172 19.6438 19.025 19.7119L18.205 19.7749L17.305 19.8369L16.343 19.8939L15.339 19.9419C14.4789 19.9793 13.618 19.9986 12.757 19.9999C11.896 19.9986 11.0352 19.9793 10.175 19.9419L9.17102 19.8939L8.21002 19.8369L7.31002 19.7749L6.48802 19.7119C5.59597 19.6436 4.75657 19.2629 4.11749 18.6368C3.47841 18.0107 3.08059 17.1793 2.99402 16.2889L2.95402 15.8639L2.87902 14.9539C2.80256 13.971 2.76186 12.9857 2.75702 11.9999C2.75702 11.0169 2.80902 9.98888 2.87902 9.04588L2.95402 8.13588C2.96702 7.98988 2.98002 7.84888 2.99402 7.71088C3.08056 6.82058 3.47824 5.98929 4.11711 5.36322C4.75599 4.73715 5.59515 4.35638 6.48702 4.28788L7.30802 4.22388L8.20802 4.16288L9.17002 4.10588L10.174 4.05788C11.0345 4.02051 11.8957 4.00117 12.757 3.99988ZM10.757 9.57488V14.4249C10.757 14.8869 11.257 15.1749 11.657 14.9449L15.857 12.5199C15.9484 12.4673 16.0243 12.3915 16.0771 12.3002C16.1299 12.2089 16.1577 12.1053 16.1577 11.9999C16.1577 11.8944 16.1299 11.7908 16.0771 11.6995C16.0243 11.6083 15.9484 11.5325 15.857 11.4799L11.657 9.05588C11.5658 9.0032 11.4623 8.97548 11.3569 8.97549C11.2516 8.97551 11.1481 9.00327 11.0569 9.05597C10.9656 9.10868 10.8899 9.18448 10.8373 9.27574C10.7846 9.36701 10.757 9.47052 10.757 9.57588" fill="white"/>
</svg>
